<svg xmlns="http://www.w3.org/2000/svg" viewBox="0 0 32 32" width="32" height="32">
  <defs>
    <style>
      /* Light theme styles */
      .bg-light { fill: #ffffff; }
      .text-light { fill: #000000; }
      .stroke-light { stroke: #000000; stroke-width: 1; }
      
      /* Dark theme styles */
      .bg-dark { fill: #000000; }
      .text-dark { fill: #ffffff; }
      .stroke-dark { stroke: #ffffff; stroke-width: 1; }
      
      /* Default to light theme */
      .favicon-bg { fill: #ffffff; }
      .favicon-text { fill: #000000; }
      .favicon-stroke { stroke: #000000; stroke-width: 1; }
    </style>
  </defs>

  <!-- Background circle -->
  <circle cx="16" cy="16" r="15.5" class="favicon-bg favicon-stroke"/>

  <!-- Letter L -->
  <rect x="8" y="8" width="3" height="16" class="favicon-text" rx="0.5"/>
  <rect x="8" y="20" width="10" height="3" class="favicon-text" rx="0.5"/>

  <!-- Letter C -->
  <path d="M20 7 C16 7 13 10 13 16 C13 22 16 25 20 25 C22 25 24 23 24 21 L20 21 L20 19 L26 19 L26 21 C26 25 24 27 20 27 C14 27 9 22 9 16 C9 10 14 5 20 5 C22 5 24 7 24 9 L20 9 Z" class="favicon-text"/>
</svg>