<svg xmlns="http://www.w3.org/2000/svg" viewBox="0 0 32 32" width="32" height="32">
  <defs>
    <linearGradient id="bg" x1="0%" y1="0%" x2="100%" y2="100%">
      <stop offset="0%" style="stop-color:#290060;stop-opacity:1" />
      <stop offset="100%" style="stop-color:#1a0040;stop-opacity:1" />
    </linearGradient>
  </defs>
  
  <!-- Background circle with subtle shadow -->
  <circle cx="16" cy="16" r="15.5" fill="url(#bg)" stroke="#000000" stroke-width="1"/>
  
  <!-- Letter L - cleaner design -->
  <rect x="8" y="8" width="3" height="16" fill="white" rx="0.5"/>
  <rect x="8" y="20" width="10" height="3" fill="white" rx="0.5"/>
  
  <!-- Letter C - modern curved design -->
  <path d="M20 7 C16 7 13 10 13 16 C13 22 16 25 20 25 C22 25 24 23 24 21 L20 21 L20 19 L26 19 L26 21 C26 25 24 27 20 27 C14 27 9 22 9 16 C9 10 14 5 20 5 C22 5 24 7 24 9 L20 9 Z" fill="white"/>
</svg>
